Love or Hate Us You Can't Beat Us @ http://PublicHD . ORG
You Won't Find Every Thing But You Will Get Something

General

Complete name : Nikita.S02E18.Power.720p.WEB-DL.DD5.1.H.264-KiNGS.mkv
Format : Matroska
Format version : Version 2
File size : 1.33 GiB
Duration : 42mn 31s
Overall bit rate : 4 486 Kbps
Encoded date : UTC 2012-03-31 09:11:36
Writing application : mkvmerge v5.4.0 ('Piper') built on Mar 10 2012 13:34:39
Writing library : libebml v1.2.3 + libmatroska v1.3.0

Video
ID : 1
Format : AVC
Format/Info : Advanced Video Codec
Format profile : High@L3.1
Format settings, CABAC : No
Format settings, ReFrames : 2 frames
Codec ID : V_MPEG4/ISO/AVC
Duration : 42mn 31s
Bit rate : 4 013 Kbps
Width : 1 280 pixels
Height : 720 pixels
Display aspect ratio : 16:9
Frame rate : 23.976 fps
Color space : YUV
Chroma subsampling : 4:2:0
Bit depth : 8 bits
Scan type : Progressive
Bits/(Pixel*Frame) : 0.182
Stream size : 1.19 GiB (89%)
Language : English
Color primaries : BT.709-5, BT.1361, IEC 61966-2-4, SMPTE RP177
Transfer characteristics : BT.709-5, BT.1361
Matrix coefficients : BT.709-5, BT.1361, IEC 61966-2-4 709, SMPTE RP177

Audio
ID : 2
Format : AC-3
Format/Info : Audio Coding 3
Mode extension : CM (complete main)
Codec ID : A_AC3
Duration : 42mn 31s
Bit rate mode : Constant
Bit rate : 384 Kbps
Channel(s) : 6 channels
Channel positions : Front: L C R, Side: L R, LFE
Sampling rate : 48.0 KHz
Bit depth : 16 bits
Compression mode : Lossy
Stream size : 117 MiB (9%)
Language : English
 
http://thumbnails43.imagebam.com/18247/331c53182463141.jpg
 
http://thumbnails75.imagebam.com/18247/dad36d182463169.jpg